<svg width="643" height="142" viewBox="0 0 643 142" fill="none" xmlns="http://www.w3.org/2000/svg">
<path d="M0.199997 2.39999H39.2C48.4 2.39999 55.2 4.26665 59.6 7.99998C64.1333 11.6 66.9333 16.2 68 21.8C69.2 27.4 69.8 34.7333 69.8 43.8C69.8 52.6 69.1333 59.8666 67.8 65.6C66.6 71.3333 63.8 76.0666 59.4 79.8C55 83.4 48.2667 85.2 39.2 85.2H7.4V140H0.199997V2.39999ZM39 78.4C46.0667 78.4 51.2667 77.0667 54.6 74.4C57.9333 71.7333 60.0667 68.0667 61 63.4C62.0667 58.6 62.6 52.0666 62.6 43.8C62.6 35.5333 62.1333 29.0667 61.2 24.4C60.2667 19.6 58.0667 15.8667 54.6 13.2C51.2667 10.5333 46.0667 9.19998 39 9.19998H7.4V78.4H39Z" fill="white"/>
<path d="M156.359 140L137.559 81C136.093 81.1333 134.026 81.2 131.359 81.2H98.7594V140H91.5594V2.39999H132.359C141.426 2.39999 148.093 4.19999 152.359 7.79999C156.759 11.2666 159.493 15.6666 160.559 21C161.759 26.3333 162.359 33.2666 162.359 41.8C162.359 48.6 161.959 54.3333 161.159 59C160.493 63.6667 158.826 67.8667 156.159 71.6C153.626 75.2 149.759 77.8 144.559 79.4L164.159 140H156.359ZM131.159 74.4C138.226 74.4 143.493 73.1333 146.959 70.6C150.426 67.9333 152.626 64.4 153.559 60C154.626 55.4667 155.159 49.4 155.159 41.8C155.159 34.0666 154.693 28 153.759 23.6C152.826 19.2 150.693 15.7333 147.359 13.2C144.026 10.5333 138.959 9.19998 132.159 9.19998H98.7594V74.4H131.159Z" fill="white"/>
<path d="M225.373 141.6C212.707 141.6 203.707 140 198.373 136.8C193.04 133.467 189.507 127.2 187.773 118C186.173 108.8 185.373 93.2 185.373 71.2C185.373 49.2 186.173 33.6 187.773 24.4C189.507 15.2 193.04 8.99999 198.373 5.8C203.707 2.46666 212.707 0.799988 225.373 0.799988C238.04 0.799988 247.04 2.46666 252.373 5.8C257.707 8.99999 261.173 15.2667 262.773 24.6C264.507 33.8 265.373 49.3333 265.373 71.2C265.373 93.0667 264.507 108.667 262.773 118C261.173 127.2 257.707 133.467 252.373 136.8C247.04 140 238.04 141.6 225.373 141.6ZM225.373 134.8C236.04 134.8 243.44 133.667 247.573 131.4C251.707 129.133 254.507 123.867 255.973 115.6C257.44 107.2 258.173 92.4 258.173 71.2C258.173 50 257.44 35.2667 255.973 27C254.507 18.6 251.707 13.2667 247.573 11C243.44 8.73332 236.04 7.59998 225.373 7.59998C214.707 7.59998 207.307 8.73332 203.173 11C199.04 13.1333 196.24 18.4 194.773 26.8C193.307 35.2 192.573 50 192.573 71.2C192.573 92.4 193.307 107.2 194.773 115.6C196.24 124 199.04 129.333 203.173 131.6C207.307 133.733 214.707 134.8 225.373 134.8Z" fill="white"/>
<path d="M280.047 133.2C286.847 132.933 291.38 132.133 293.647 130.8C295.914 129.467 297.314 126.467 297.847 121.8C298.514 117 298.847 107.533 298.847 93.4V2.39999H306.047V92.6C306.047 108.733 305.58 119.733 304.647 125.6C303.714 131.467 301.58 135.267 298.247 137C295.047 138.733 288.98 139.733 280.047 140V133.2Z" fill="white"/>
<path d="M335.169 140V2.39999H397.569V9.19998H342.569V67H390.769V73.8H342.569V133.2H397.569V140H335.169Z" fill="white"/>
<path d="M476.297 139.6C470.03 140.933 462.897 141.6 454.897 141.6C443.164 141.6 434.63 140 429.297 136.8C424.097 133.6 420.564 127.267 418.697 117.8C416.83 108.333 415.897 92.8 415.897 71.2C415.897 49.8667 416.83 34.4667 418.697 25C420.564 15.4 424.097 8.99999 429.297 5.8C434.63 2.46666 443.164 0.799988 454.897 0.799988C458.364 0.799988 462.097 1.06665 466.097 1.59998C470.097 1.99999 473.364 2.53332 475.897 3.19999V9.59999C469.63 8.26665 463.164 7.59998 456.497 7.59998C445.83 7.59998 438.297 8.99998 433.897 11.8C429.497 14.4667 426.564 20 425.097 28.4C423.764 36.6667 423.097 50.9333 423.097 71.2C423.097 91.4667 423.764 105.8 425.097 114.2C426.564 122.467 429.497 128 433.897 130.8C438.297 133.467 445.83 134.8 456.497 134.8C459.697 134.8 463.164 134.6 466.897 134.2C470.63 133.8 473.764 133.333 476.297 132.8V139.6Z" fill="white"/>
<path d="M519.761 140V9.19998H486.561V2.39999H560.161V9.19998H526.961V140H519.761Z" fill="white"/>
<path d="M608.373 141.6C603.307 141.6 597.707 141.333 591.573 140.8C585.44 140.4 580.107 139.867 575.573 139.2V132.2C580.24 132.867 585.507 133.467 591.373 134C597.373 134.533 602.307 134.8 606.173 134.8C611.64 134.8 616.107 134.4 619.573 133.6C623.173 132.8 626.307 131.4 628.973 129.4C631.507 127.533 633.173 124.533 633.973 120.4C634.773 116.133 635.173 110.467 635.173 103.4C635.173 94.2 634.84 87.9333 634.173 84.6C633.64 81.1333 632.173 78.7333 629.773 77.4C627.507 75.9333 623.173 74.7333 616.773 73.8L590.373 69.8C584.773 69 580.707 67.2667 578.173 64.6C575.64 61.9333 574.107 58.6666 573.573 54.8C573.04 50.8 572.773 44.8667 572.773 37C572.773 24.0667 575.373 14.8 580.573 9.19998C585.907 3.59998 595.107 0.799988 608.173 0.799988C613.907 0.799988 619.507 1.06665 624.973 1.59998C630.44 1.99999 634.573 2.59999 637.373 3.39999V9.99998C633.64 9.33332 629.107 8.79998 623.773 8.39998C618.573 7.86664 613.84 7.59998 609.573 7.59998C603.04 7.59998 597.84 8.19998 593.973 9.39998C590.107 10.6 587.173 12.4667 585.173 15C583.04 17.4 581.64 20.3333 580.973 23.8C580.307 27.2667 579.973 31.8 579.973 37.4C579.973 44.6 580.307 49.8667 580.973 53.2C581.64 56.4 582.907 58.6667 584.773 60C586.64 61.3333 589.707 62.3333 593.973 63L618.373 66.8C625.173 67.8666 630.24 69.2667 633.573 71C637.04 72.7333 639.507 75.9333 640.973 80.6C641.64 82.4666 642.04 84.9333 642.173 88C642.307 91.0667 642.373 95.8667 642.373 102.4C642.373 112.133 641.373 119.8 639.373 125.4C637.507 131 634.107 135.133 629.173 137.8C624.24 140.333 617.307 141.6 608.373 141.6Z" fill="white"/>
</svg>
